<?xml version="1.0" encoding="utf-8"?>
<!-- Generator: Adobe Illustrator 23.0.4, SVG Export Plug-In . SVG Version: 6.00 Build 0)  -->
<svg version="1.1" id="Layer_1" xmlns="http://www.w3.org/2000/svg" xmlns:xlink="http://www.w3.org/1999/xlink" x="0px" y="0px"
	 viewBox="0 0 350 350" style="enable-background:new 0 0 350 350;" xml:space="preserve">
<style type="text/css">
	.st0{fill:#686963;}
	.st1{fill:#EFCB68;}
	.st2{fill:none;}
	.st3{fill:#BC4B51;}
	.st4{display:none;}
	.st5{display:inline;fill:#BC4B51;}
</style>
<rect class="st0" width="350" height="350"/>
<g>
	<path class="st1" d="M175,22.5C90.8,22.5,22.5,90.8,22.5,175S90.8,327.5,175,327.5S327.5,259.2,327.5,175S259.2,22.5,175,22.5z
		 M175,306.7c-72.7,0-131.7-58.9-131.7-131.7S102.3,43.3,175,43.3S306.7,102.3,306.7,175S247.7,306.7,175,306.7z"/>
	<circle class="st1" cx="175" cy="175" r="127.8"/>
</g>
<g>
	<path class="st2" d="M208.6,262.2c0-2.2-0.1-4.2-0.4-5.8c-0.2-1.7-0.5-3.4-0.9-5.2c-0.5-3.1-1.5-6.6-2.8-10.5l-32.2-86.5
		c-1.2,1.6-1.8,4.1-1.8,7.4s0.7,6.8,2,10.6l4.2,12.5l31.7,85.1c0.4-0.5,0.5-1.3,0.4-2.5C208.7,266.1,208.6,264.4,208.6,262.2z"/>
	<path class="st2" d="M93.8,209c-3.9-9.6-7.3-18.8-10.2-27.9c-2.9-9.1-5.7-17.8-9.1-26.4c-1.6,0.9-2.3,2.4-2.3,4.4s0.1,3.5,0.2,4.5
		c0.2,1,0.5,2.3,0.9,4c1,4.1,2.3,8.5,3.9,13c1.6,4.6,2.7,7.8,3.2,9.7c0.5,1.9,1,3.5,1.2,4.9c0.2,1.4,0.4,2.4,0.5,3.3
		c0.1,0.9,0.2,1.8,0.2,2.8c0.2,2.1-2.3,4.2-7.3,6.2c3.2,0.6,5.7,1.2,7.5,1.6c1.8,0.5,3.1,1.3,3.9,2.6c0.8,1.3,1.9,3.4,3.3,6.4
		c1.4,3,3,6.3,4.6,10.1l5,11.9c1.7,4.1,3.2,8,4.5,11.5s2.5,6.4,3.6,8.6c1.1,2.2,2.2,4,3.2,5.4c1.9,2.4,4.2,3.9,6.8,4.3
		c-4.3-10.5-8.3-20.9-12.1-31.2S97.7,218.5,93.8,209z"/>
	<path class="st0" d="M325.7,43.2c-2-2.2-4.8-3.3-8.2-3.3c-3.4,0-6.9,0.9-10.3,2.6c-2.4-1.7-5.4-2.6-9-2.6c-3.6,0-6.6,1-9.1,3
		c-2.8-2-6.2-3-10.1-3c-3.9,0-6.9,1-9,2.9c-2.1,1.9-3.2,4.1-3.2,6.6s0.4,4.3,1.2,5.5c2.3-1.3,5.7-2,10.4-2c4.7,0,8.3,1.2,10.8,3.7
		l-61.6,177.6l-31.2-97.9c2.7-1.9,6.5-2.9,11.6-2.9c2.2,0,4.3,0.7,6.4,2c0.9-0.6,1.3-1.9,1.3-4.1c-0.2-3.6-2-6.4-5.5-8.4
		c-1.6-1-3.5-1.8-5.7-2.3s-5.1-0.8-8.7-0.8c-3.6,0-7.5,1.3-11.6,4c-3.5-2.7-7.9-4-13.2-4c-5.4,0-10,1.4-13.9,4.1
		c-3.6-2.7-7.8-4.1-12.6-4.1s-8.4,1.2-10.9,3.5c-1.2,1.1-2.1,2.4-2.6,3.8c-0.5,1.4-0.8,3-0.8,4.7c0,1.7,0.4,2.9,1.3,3.5
		c2-1.3,4.4-2,7.4-2s6.4,1.4,10.4,4.1l10.4,30.4l-25.8,74.5l-38-106.2c2.8-1.9,6.6-2.8,11.5-2.8c2.2,0,4.3,0.7,6.4,2
		c0.9-0.6,1.3-1.9,1.3-4.1c-0.2-3.6-2-6.4-5.5-8.4c-1.6-1-3.5-1.8-5.7-2.3s-5.1-0.8-8.7-0.8c-3.6,0-7.5,1.3-11.6,4
		c-3.5-2.7-7.8-4-13.2-4c-5.4,0-10,1.4-13.9,4.1c-3.6-2.7-7.8-4.1-12.6-4.1c-0.2,0-0.4,0-0.6,0v14.6c1.7,0.7,3.6,1.7,5.6,3.1
		l16,42.9l3.3,8c1.5,3.8,2.3,6.7,2.3,8.8c0.2,3.2-3.1,6.8-9.8,10.6c5.3,1.9,9.6,4.3,12.9,7.1c2.1,1.9,4.1,5.1,6,9.5l37.8,85
		c0.6,0.5,1.3,0.8,2.3,0.8s1.8-0.2,2.5-0.7c2.2-1.5,5.5-7.8,9.9-18.7l36.6-97.3l39.9,115.9c0.6,0.5,1.3,0.8,2.3,0.8s1.8-0.2,2.5-0.7
		c2.2-1.4,5.5-7.6,9.9-18.7l20.3-58.5c2.7-7.1,6.4-12.9,11.2-17.3c2.5-2.3,6.9-4.7,13.3-7.3c-7.5-2.3-11.3-5.5-11.3-9.7
		c0-2.6,31.3-87.6,34-94.6l15.9-43.9c3.6-4,8.1-6,13.4-6c2.9,0,5.4,0.7,7.4,2c0.9-0.6,1.3-1.8,1.3-3.6
		C328.8,48.3,327.8,45.4,325.7,43.2z M110.6,265.6c-1-1.4-2.1-3.2-3.2-5.4c-1.1-2.2-2.3-5.1-3.6-8.6s-2.8-7.4-4.5-11.5l-5-11.9
		c-1.6-3.8-3.2-7.1-4.6-10.1c-1.4-3-2.5-5.1-3.3-6.4c-0.8-1.3-2.1-2.1-3.9-2.6c-1.8-0.4-4.3-1-7.5-1.6c5-2,7.5-4.1,7.3-6.2
		c0-1-0.1-1.9-0.2-2.8c-0.1-0.9-0.3-1.9-0.5-3.3c-0.2-1.4-0.7-3-1.2-4.9c-0.5-1.9-1.6-5.1-3.2-9.7c-1.6-4.5-2.9-8.9-3.9-13
		c-0.4-1.7-0.7-3-0.9-4c-0.1-1-0.2-2.5-0.2-4.5s0.7-3.5,2.3-4.4c3.4,8.6,6.2,17.3,9.1,26.4c2.9,9.1,6.3,18.3,10.2,27.9
		c3.9,9.5,7.7,19.4,11.5,29.7s7.8,20.7,12.1,31.2C114.8,269.5,112.5,268,110.6,265.6z M208.4,269.8l-31.7-85.1l-4.2-12.5
		c-1.3-3.8-2-7.3-2-10.6s0.6-5.8,1.8-7.4l32.2,86.5c1.3,3.9,2.3,7.4,2.8,10.5c0.4,1.8,0.7,3.5,0.9,5.2c0.3,1.6,0.4,3.6,0.4,5.8
		s0.1,3.9,0.2,5.1C208.9,268.5,208.8,269.3,208.4,269.8z"/>
	<path class="st1" d="M33,123.2c-1.2,1.1-2.1,2.4-2.6,3.8c-0.5,1.4-0.8,3-0.8,4.7s0.4,2.9,1.3,3.5c1.9-1.3,4.4-2,7.4-2
		c1.5,0,3.2,0.4,5,1.1v-14.6C38.8,119.8,35.4,121,33,123.2z"/>
	<g>
		<path class="st3" d="M248.3,189.5c0,4.2,3.8,7.4,11.3,9.7c-6.4,2.6-10.8,5-13.3,7.3c-4.8,4.4-8.5,10.2-11.2,17.3l-20.3,58.5
			c-4.4,11.1-7.7,17.3-9.9,18.7c-0.7,0.5-1.5,0.7-2.5,0.7s-1.7-0.3-2.3-0.8L160.2,185l-36.6,97.3c-4.4,10.9-7.7,17.2-9.9,18.7
			c-0.7,0.5-1.5,0.7-2.5,0.7s-1.7-0.3-2.3-0.8l-37.8-85c-1.9-4.4-3.9-7.6-6-9.5c-3.3-2.8-7.6-5.2-12.9-7.1c6.7-3.8,10-7.4,9.8-10.6
			c0-2.1-0.8-5-2.3-8.8l-3.3-8L40.5,129c-4.1-2.8-7.6-4.2-10.6-4.2s-5.5,0.7-7.4,2c-0.9-0.6-1.3-1.8-1.3-3.5s0.3-3.3,0.8-4.7
			c0.5-1.4,1.4-2.7,2.6-3.8c2.5-2.3,6.1-3.5,10.9-3.5s9,1.4,12.6,4.1c3.9-2.7,8.5-4.1,13.9-4.1s9.7,1.3,13.2,4c4.1-2.7,8-4,11.6-4
			s6.5,0.3,8.7,0.8s4.1,1.3,5.7,2.3c3.5,2,5.3,4.8,5.5,8.4c0,2.2-0.4,3.5-1.3,4.1c-2.1-1.3-4.2-2-6.4-2c-4.9,0-8.7,0.9-11.5,2.8
			l38,106.2l25.8-74.5l-10.4-30.6c-4-2.7-7.4-4.1-10.4-4.1s-5.4,0.7-7.4,2c-0.9-0.6-1.3-1.8-1.3-3.5s0.3-3.3,0.8-4.7
			c0.5-1.4,1.4-2.7,2.6-3.8c2.5-2.3,6.1-3.5,10.9-3.5s9,1.4,12.6,4.1c3.9-2.7,8.5-4.1,13.9-4.1s9.7,1.3,13.2,4c4.1-2.7,8-4,11.6-4
			s6.5,0.3,8.7,0.8s4.1,1.3,5.7,2.3c3.5,2,5.3,4.8,5.5,8.4c0,2.2-0.4,3.5-1.3,4.1c-2.1-1.3-4.2-2-6.4-2c-5.1,0-8.9,1-11.6,2.9
			l31.2,97.9L280.8,58c-2.5-2.5-6.1-3.7-10.8-3.7c-4.7,0-8.1,0.7-10.4,2c-0.8-1.2-1.2-3-1.2-5.5s1.1-4.7,3.2-6.6s5.1-2.9,9-2.9
			s7.3,1,10.1,3c2.5-2,5.5-3,9.1-3s6.6,0.9,9,2.6c3.4-1.7,6.9-2.6,10.3-2.6s6.2,1.1,8.2,3.3c2.1,2.2,3.1,5.1,3.1,8.6
			c0,1.8-0.4,3-1.3,3.6c-2-1.3-4.5-2-7.4-2c-5.3,0-9.8,2-13.4,6l-15.9,43.9C279.7,111.9,248.3,186.9,248.3,189.5z M66.1,146.3
			c-1.6,0.9-2.3,2.4-2.3,4.4s0.1,3.5,0.2,4.5c0.2,1,0.5,2.3,0.9,4c1,4.1,2.3,8.5,3.9,13s2.7,7.8,3.2,9.7s1,3.5,1.2,4.9
			s0.4,2.4,0.5,3.3c0.1,0.9,0.2,1.8,0.2,2.8c0.2,2.1-2.3,4.2-7.3,6.2c3.2,0.6,5.7,1.2,7.5,1.6c1.8,0.5,3.1,1.3,3.9,2.6
			s1.9,3.4,3.3,6.4s3,6.3,4.6,10.1l5,11.9c1.7,4.1,3.2,8,4.5,11.5s2.5,6.4,3.6,8.6c1.1,2.2,2.2,4,3.2,5.4c1.9,2.4,4.2,3.9,6.8,4.3
			c-4.3-10.5-8.3-20.9-12.1-31.2s-7.6-20.2-11.5-29.7c-3.9-9.6-7.3-18.8-10.2-27.9S69.5,154.8,66.1,146.3z M163.9,145.8
			c-1.2,1.6-1.8,4.1-1.8,7.4c0,3.3,0.7,6.8,2,10.6l4.2,12.5l31.7,85.1c0.4-0.5,0.5-1.3,0.4-2.5s-0.2-2.9-0.2-5.1
			c0-2.2-0.1-4.2-0.4-5.8c-0.2-1.7-0.5-3.4-0.9-5.2c-0.5-3.1-1.5-6.6-2.8-10.5L163.9,145.8z"/>
	</g>
</g>
<path class="st3" d="M175,27C93.3,27,27,93.3,27,175s66.3,148,148,148s148-66.3,148-148S256.7,27,175,27z M175,302.8
	c-70.6,0-127.8-57.2-127.8-127.8S104.4,47.2,175,47.2S302.8,104.4,302.8,175S245.6,302.8,175,302.8z"/>
<g class="st4">
	<path class="st5" d="M48.3,288.8c0,0.5,0.1,1.1,0.1,1.7s0,1.4,0,2.2c0,1.3,0,2.5-0.1,3.7s-0.2,2.4-0.3,3.5
		c-0.3,2.3-0.7,4.4-1.3,6.3l0,0c-0.3,1.1-0.7,2.1-1.1,3c-0.4,0.9-0.8,1.6-1.3,2.1c-0.9,1.2-2,1.9-3.2,1.9c-1.4,0-2.4-0.7-3.3-2
		c-0.5-0.8-0.9-1.9-1.3-3.3v-0.1c0,0,0,0,0-0.1c-0.4,1.8-1,3.1-1.5,4.1c-0.8,1.4-1.8,2.1-2.9,2.1c-1,0-1.8-0.3-2.5-0.9
		s-1.2-1.5-1.7-2.6c-0.4-1.2-0.8-2.6-1-4.2c-0.1-0.8-0.2-1.7-0.3-2.7s-0.1-2-0.1-3.1c0-1.2,0-2.5,0.1-4.2c0-1.6,0.2-3.6,0.5-5.9
		c0-0.3,0.1-0.7,0.2-1.1s0.4-0.8,0.7-1.1c0.2-0.2,0.4-0.4,0.6-0.5c0.3-0.1,0.5-0.2,0.9-0.3c0.3-0.1,0.7,0,1.1,0
		c0.4,0.1,0.8,0.2,1.3,0.5c0.8,0.4,1.3,1.1,1.6,2s0.4,2,0.4,3.4c-0.1,1.3-0.2,2.5-0.5,3.5c-0.3,1.1-0.7,2.1-1.2,3.1
		c-0.2,0.4-0.5,0.7-0.7,0.9c-0.3,0.2-0.7,0.2-1.1,0c-0.3-0.1-0.4-0.3-0.5-0.6c-0.1-0.4,0.2-0.9,0.8-1.4c0.2-0.3,0.3-0.8,0.5-1.5
		s0.3-1.7,0.4-3.2c0.1-1.4,0-2.4-0.1-3s-0.4-0.9-0.7-0.9c-0.1,0-0.1,0-0.2,0.1c0,0.1-0.1,0.2-0.1,0.3s-0.1,0.2-0.1,0.3s0,0.2,0,0.2
		c-0.2,0.6-0.3,1.2-0.4,1.8c-0.1,0.7-0.2,1.4-0.3,2.1c-0.3,2.3-0.4,5-0.4,8.2c0,2.4,0.3,4.5,0.9,6.1c0.2,0.5,0.4,1,0.7,1.5
		c0.3,0.5,0.7,0.7,1.1,0.7c0.6,0,1.2-0.6,1.9-1.8c0.7-1.3,1.3-2.9,1.6-4.7c0.1-0.7,0.2-1.4,0.3-2s0.2-1.3,0.3-2s0.1-1.6,0.2-2.5
		c0.1-1,0.1-2.1,0.2-3.6c0-0.2,0-0.5,0.1-0.7c0-0.1,0.1-0.3,0.2-0.5c0.1-0.2,0.3-0.4,0.5-0.6c0.1-0.1,0.3-0.1,0.5-0.2
		s0.4-0.1,0.6-0.1c0.4,0,0.8,0.1,1,0.2c0.3,0.2,0.5,0.4,0.8,0.7c0.2,0.2,0.2,0.4,0,0.6c-0.1,0.1-0.3,0.4-0.5,0.9s-0.4,1.4-0.5,2.7
		c-0.1,0.5-0.1,1-0.2,1.3c0,0.3-0.1,0.7-0.1,1.1s-0.1,0.8-0.1,1.4c0,0.5,0,1.3,0,2.2c0,2.3,0.3,4.2,0.9,5.6c0.3,0.6,0.5,1.1,0.8,1.4
		c0.3,0.2,0.6,0.4,0.8,0.4c0.4,0,0.8-0.3,1.2-0.9c0.2-0.3,0.5-0.7,0.7-1.3c0.3-0.5,0.5-1.1,0.7-1.8c0.5-1.3,0.9-2.8,1.2-4.4
		c0.4-1.6,0.7-3.5,0.9-5.5c0.1-0.5,0.1-1,0.1-1.5s0.1-1.1,0.1-1.6c0-0.4,0-0.8,0-1.3s0-1,0-1.7s-0.1-1.3-0.1-1.7c0-0.5,0-0.9,0-1.1
		c0-0.3-0.1-0.5-0.2-0.6c-0.2-0.3-0.3-0.7-0.3-1.2c0-0.2,0-0.3,0.1-0.4s0.1-0.2,0.2-0.2c0.2-0.1,0.4-0.2,0.6-0.2
		c0.2,0,0.4,0,0.6,0.1c0.2,0.1,0.4,0.3,0.6,0.6C48,287,48.2,287.8,48.3,288.8z"/>
</g>
</svg>
